<?xml version="1.0" standalone="no"?>
<!DOCTYPE svg PUBLIC "-//W3C//DTD SVG 1.1//EN" "http://www.w3.org/Graphics/SVG/1.1/DTD/svg11.dtd" >
<!--
2013-9-30: Created.
-->
<svg>
<metadata>
Created by iconfont
</metadata>
<defs>

<font id="icon" horiz-adv-x="1024" >
  <font-face
    font-family="icon"
    font-weight="500"
    font-stretch="normal"
    units-per-em="1024"
    ascent="896"
    descent="-128"
  />
    <missing-glyph />
    
    <glyph glyph-name="shangchuan" unicode="&#58989;" d="M950.72711111 485.94488889c-30.94755555 30.94755555-70.99733333 54.61333333-114.688 65.536C803.27111111 728.064 633.96977778 848.21333333 455.56622222 817.26577778c-136.53333333-23.66577778-242.11911111-131.072-265.78488889-265.78488889C78.73422222 524.17422222 2.27555555 425.87022222 2.27555555 313.00266667000005v-10.92266667C2.27555555 165.54666667000004 111.50222222 56.32000000000005 246.21511111 56.32000000000005H293.54666667v72.81777778h-47.33155556C151.552 129.13777777999996 75.09333333 205.59644445000004 75.09333333 300.25955554999996V311.18222221999997c0 94.66311111 76.45866667 171.12177778 171.12177778 171.12177778h10.92266667v9.10222222 7.28177778 5.46133333 1.82044445 7.28177777 3.6408889 3.64088888 1.82044445c1.82044445 10.92266667 3.64088889 23.66577778 7.28177777 34.58844444 34.58844445 136.53333333 174.76266667 218.45333333 309.47555556 183.86488889 89.20177778-23.66577778 160.19911111-92.84266667 183.86488889-183.86488889 3.64088889-10.92266667 5.46133333-23.66577778 5.46133333-34.58844444v-38.22933333h10.92266667c94.66311111 1.82044445 172.94222222-74.63822222 174.76266667-169.30133334v-14.56355556c0-94.66311111-76.45866667-171.12177778-171.12177778-171.12177777H730.45333333v-72.81777778h47.33155556C912.49777778 56.32000000000005 1021.72444445 165.54666667000004 1021.72444445 300.25955554999996V311.18222221999997c0 65.536-25.48622222 127.43111111-70.99733334 174.76266667zM357.26222222 280.23466667l50.97244445-50.97244445 67.35644444 67.35644445V-52.90666667000005h72.81777778V296.61866667000004l67.35644444-67.35644445 50.97244445 50.97244445-154.73777778 154.73777778z"  horiz-adv-x="1024" />

    
    <glyph glyph-name="xiazai1" unicode="&#58974;" d="M833.10478222 557.98670222C803.90826667 707.70688 672.54499555 820.90666667 511.98520889 820.90666667c-160.55068445 0-291.91281778-113.19978667-321.11047111-262.91996445C81.41255111 528.76856889 1.13777778 426.52785778 1.13777778 309.67239111000004 1.13777778 167.25333333000003 114.25336889 54.044444450000015 256.56661333 54.044444450000015h36.49422222v73.04192h-36.49422222c-102.16561778 0-182.45063111 80.33507555-182.45063111 182.58602666 0 102.24071111 80.27477333 182.58488889 182.45063111 182.58488889 0 142.41792 113.11559111 255.61770667 255.42883556 255.61770667 142.31324445 0 255.43793778-113.19978667 255.43793778-255.61770667 102.16561778 0 182.45063111-80.33393778 182.45063111-182.58488889 0-102.25208889-80.27477333-182.58602667-182.45063111-182.58602666h-36.49422222V54.044444450000015h36.49422222C909.74663111 54.044444450000015 1022.86222222 167.25333333000003 1022.86222222 309.67239111000004c-0.01024 116.85432889-80.29525333 219.09617778-189.75744 248.31431111zM545.22993778-42.94769778c-14.62840889-10.94883555-29.23633778-14.60110222-43.86474667-7.29543111-3.64885333 0-7.30908445 3.64316445-10.96817778 7.29543111l-109.65560888 105.80423111c-14.61816889 14.60110222-14.61816889 36.48853333 0 51.08053334 14.62840889 14.60110222 40.20451555 14.60110222 54.83292444 0l43.85450666-40.13169778v310.12408889c0 21.88743111 18.27726222 36.47943111 36.55452445 36.47943111 21.92725333 0 36.54542222-18.23402667 36.54542222-36.47829334v-310.13546666l43.86360889 40.13169778c14.61816889 14.60110222 40.20565333 14.60110222 54.82268444 0 14.62840889-14.592 14.62840889-36.47943111 0-51.08053334l-105.98513777-105.79399111z"  horiz-adv-x="1024" />

    
    <glyph glyph-name="add1" unicode="&#59488;" d="M487.19644445-69.97333332999995c-20.02488889 0-36.29511111 16.27022222-36.29511112 36.29511111L450.90133333 322.90133333000006 93.86666667 322.90133333000006c-20.02488889 0-36.29511111 16.27022222-36.29511112 36.29511112l0 49.49333333c0 20.02488889 16.27022222 36.29511111 36.29511112 36.29511111l357.03466666 0L450.90133333 802.13333333c0 20.02488889 16.27022222 36.29511111 36.29511112 36.29511112l49.49333333 0c20.02488889 0 36.29511111-16.27022222 36.29511111-36.29511112l0-357.03466666 357.03466666 0c19.79733333 0 35.84-16.27022222 35.84-36.29511112l0-49.49333333c0-20.02488889-16.27022222-36.29511111-36.2951111-36.29511111L573.09866667 323.01511111l0-357.03466666c0-19.79733333-16.27022222-35.84-36.29511112-35.84L487.19644445-69.85955554999998z"  horiz-adv-x="1024" />

    
    <glyph glyph-name="minus1" unicode="&#59490;" d="M93.41155555 322.78755555c-20.02488889 0-36.29511111 16.27022222-36.2951111 36.4088889l0 49.6071111c0 20.02488889 16.27022222 36.29511111 36.2951111 36.29511112l837.29066667 0c19.79733333 0 35.84-16.27022222 35.84-36.29511112l0-49.6071111c0-20.02488889-16.27022222-36.40888889-36.40888889-36.4088889L93.41155555 322.78755555z"  horiz-adv-x="1024" />

    
    <glyph glyph-name="menu" unicode="&#58881;" d="M513.455 651.066c-131.223 0-262.447-0.021-393.673 0.015-30.243 0.007-53.357 23.959-52.499 54.185 0.774 27.255 23.495 49.712 50.775 50.181 0.966 0.016 1.932 0.011 2.898 0.011 261.803 0 523.607 0.003 785.411-0.004 24.951-0.001 45.317-14.907 51.733-37.79 9.482-33.813-15.274-66.567-50.491-66.58-131.385-0.047-262.769-0.019-394.153-0.019zM514.235 435.651c130.743 0 261.485 0.012 392.227-0.011 25.687-0.005 46.090-15.63 52.115-39.743 8.117-32.483-16.167-64.132-49.605-64.646-1.449-0.023-2.898-0.027-4.347-0.027-260.679-0.001-521.36 0.030-782.038-0.055-22.336-0.011-39.434 8.753-49.666 28.765-17.895 35.001 7.493 75.659 47.157 75.683 131.386 0.084 262.771 0.033 394.158 0.033zM514.189 115.85c130.583 0 261.164 0.011 391.747-0.011 24.263-0.005 43.582-13.138 51.158-34.594 12.129-34.352-12.922-69.792-49.522-69.806-132.353-0.053-264.706-0.022-397.060-0.022-130.1 0-260.199-0.015-390.298 0.007-30.458 0.007-53.568 23.562-52.937 53.802 0.575 27.548 23.221 50.393 50.819 50.518 52.812 0.237 105.623 0.095 158.439 0.099 79.219 0.007 158.437 0.002 237.655 0.002z"  horiz-adv-x="1024" />

    
    <glyph glyph-name="link1" unicode="&#59946;" d="M614.3425499 486.33968467c89.80826661-89.80826661 95.58443057-232.53540117 17.13864727-328.99170498-10.9722498-13.58787041-4.89374297-6.79393565-149.3083749-151.20680977-96.14517188-96.14517188-251.83439648-96.23130469-348.02878711 0-96.17153906 96.134625-96.21196875 251.81506055 0 348.02878711 57.60870469 57.60870469 91.11607734 91.22857734 111.46096933 111.54534434 13.11853536 13.09919942 35.7380332 4.13788447 36.01049414-14.39997891a304.64603789 304.64603789 0 0 1 8.34256582-66.49443369c1.69804424-7.08221602-0.47812412-14.53533047-5.62850771-19.68395625L203.73573008 284.56068398c-57.57706406-57.61222031-57.80909531-150.98180977 0-208.82781914 57.61222031-57.57706406 150.98180977-57.80909531 208.82781914 0l132.16972763 132.18730576c57.512025 57.52432969 57.61573594 151.19450508 0 208.81024102a147.16736279 147.16736279 0 0 1-40.10267549 28.52749776c-8.12635489 3.92518916-12.62459092 12.74412217-11.53299023 21.70192148 2.38359023 19.55036162 11.06717167 38.46967031 26.04195351 53.44621084l7.69041827 7.69041827c6.37206065 6.37381846 16.13142158 8.0753792 24.18746485 4.03241571 22.84977128-11.46795205 44.27395839-26.73804638 63.32510214-45.78919101zM889.85464648 761.8588125c-96.19439062 96.23130469-251.88361523 96.14517188-348.0287871 0-144.41463193-144.41463193-138.3361251-137.61893935-149.3083749-151.20680977-78.4457833-96.45630381-72.66962021-239.18343838 17.13864726-328.99170497 19.05114375-19.05114375 40.47533174-34.32123896 63.32510214-45.78919102 8.05428545-4.0429626 17.8136455-2.33964492 24.18746485 4.03241573l7.69041827 7.69041825c14.97654053 14.97478271 23.65836416 33.89584922 26.04195351 53.44621084 1.09159981 8.95779932-3.40663536 17.77673144-11.53299023 21.70192149a147.13923779 147.13923779 0 0 0-40.10267549 28.52749775c-57.61573594 57.61573594-57.512025 151.28591133 0 208.81024102l132.16972763 132.18730576c57.84600938 57.80909531 151.21559883 57.57706406 208.82781914 0 57.80909531-57.84600938 57.57706406-151.21559883 0-208.82781914l-80.59206885-80.57800635c-5.15038271-5.1486249-7.32655195-12.60173935-5.62850771-19.68395625a304.64603789 304.64603789 0 0 0 8.34256582-66.49443369c0.27246094-18.53786338 22.89195879-27.49917832 36.01049415-14.3999789 20.344892 20.31676699 53.85226464 53.93663964 111.46096933 111.54534433 96.21021094 96.21372656 96.16978125 251.89416211-0.00175782 348.03054492z"  horiz-adv-x="1024" />

    
    <glyph glyph-name="19" unicode="&#58880;" d="M566.272 338.60266666999996c0-29.9008-24.30293333-54.20373333-54.272-54.20373334S457.79626667 308.6336 457.79626667 338.60266666999996L457.79626667 808.7552000000001C457.79626667 838.656 482.0992 862.95893333 512 862.95893333S566.272 838.656 566.272 808.7552000000001L566.272 338.60266666999996zM57.61706667 359.08266667c0 162.2016 85.67466667 304.81066667 213.87946666 384.68266666 25.05386667 15.9744 58.5728 8.32853333 74.41066667-17.06666666 15.83786667-25.46346667 8.192-58.7776-17.13493333-74.61546667-97.6896-61.37173333-162.6112-169.23306667-162.6112-292.864 0.4096-190.94186667 154.8288-345.42933333 345.83893333-345.83893333 191.01013333 0.47786667 345.36106667 154.96533333 345.7024 345.83893333 0 126.5664-68.26666667 236.7488-169.91573333 297.23306667-25.8048 15.29173333-34.26986667 48.60586667-19.0464 74.41066666 15.36 25.73653333 48.67413333 34.2016 74.47893333 18.97813334 133.25653333-78.71146667 223.30026667-224.18773333 223.30026667-390.48533334 0-250.81173333-203.3664-454.2464-454.31466667-454.2464C261.05173333-95.30026667000004 57.61706667 108.06613332999996 57.61706667 359.08266667"  horiz-adv-x="1024" />

    
    <glyph glyph-name="iconsreach" unicode="&#58904;" d="M932.157-114.784c-8.21 0-16.104 3.158-22.313 8.946l-108.618 108.618c-5.999 5.999-9.262 13.998-9.262 22.629 0 5.473 1.368 10.735 4 15.577l-16.63 16.735c-79.884-68.202-180.819-105.565-285.437-105.565-117.669 0-228.392 45.783-311.539 129.036-83.253 83.253-129.036 193.87-129.036 311.539s45.783 228.392 129.036 311.539c83.253 83.253 193.87 129.036 311.539 129.036 242.916 0 440.576-197.659 440.576-440.576 0-106.828-38.837-209.447-109.67-290.174l16.314-16.314c4.736 2.632 9.998 4 15.577 4 8.21 0 16.104-3.158 22.313-8.946l108.618-108.618c5.999-5.999 9.262-13.998 9.262-22.629 0-8.21-3.158-16.104-8.946-22.313l-33.259-33.259c-5.894-5.999-13.893-9.262-22.523-9.262l0 0zM494.002 748.686c-95.146 0-184.608-37.047-251.757-104.198-67.254-67.254-104.198-156.612-104.198-251.757s37.047-184.608 104.198-251.757c67.149-67.149 156.612-104.198 251.757-104.198 95.146 0 184.608 37.047 251.757 104.198s104.198 156.612 104.198 251.757c0.105 196.291-159.664 355.955-355.955 355.955l0 0z"  horiz-adv-x="1024" />

    
    <glyph glyph-name="safety" unicode="&#58906;" d="M513.4-106.2c-24.9 0-48.6 7.2-79.2 24.2-179 99.2-266.3 179.3-311.4 285.9C78.1 309.1 79.4 432.4 81.5 619.1c0.5 43.7 1 88.6 1 138.2L82.5 787l28.4 8.8c57.5 17.8 119.9 34.4 185.3 49.5C361.6 860.4 433.9 870 511.2 874l3.3 0.2 3.3-0.4C669.8 857 784 834.4 912.1 795.9l28.6-8.6 0.1-29.9c0.1-55.6 0.8-106.8 1.4-151.9 2.6-187.6 4.3-311.6-39.5-412.6-43.5-100.4-130.6-177.6-310.6-275.4C562.1-98.9 537.8-106.2 513.4-106.2L513.4-106.2zM163 727.3c-0.1-38.7-0.5-74.4-0.9-109.1-1.9-177.3-3.2-294.5 35.4-384.5 37.8-88.2 112.5-154.6 275.8-245.1 17.8-9.9 29.8-14.1 40.1-14.1 10.3 0 22.7 4.2 40.2 13.8 164 89.1 238.4 153 274.5 235.8 37.5 85.8 36 196.6 33.4 380.2-0.5 36.8-1.1 78.2-1.3 122.7-110 31.5-214.7 51.3-348.1 66.2-71.4-3.8-137.9-12.8-197.8-26.6C261.5 754.6 210.6 741.3 163 727.3zM496.8 202.2c-9.1 0-18.1 3.1-25.2 8.9L288.7 357.6c-8.4 6.7-13.7 16.3-14.9 27-1.2 10.7 1.9 21.2 8.6 29.6 7.7 9.6 19.2 15.1 31.5 15.1 9.1 0 18.1-3.1 25.2-8.9L490.8 299l207.7 254.6c7.7 9.4 19.1 14.8 31.3 14.8 9.3 0 18.3-3.2 25.5-9.1 8.3-6.8 13.5-16.5 14.6-27.2 1.1-10.7-2.1-21.2-8.9-29.6L528 217.1C520.3 207.7 508.9 202.2 496.8 202.2L496.8 202.2z"  horiz-adv-x="1024" />

    
    <glyph glyph-name="del-m" unicode="&#58990;" d="M294.813 40.361c-49.239 0-95.897 23.845-124.8 63.69l-137.497 189.832c-39.226 54.090-39.226 126.761 0 180.852l137.497 189.729c28.903 39.845 75.561 63.69 124.8 63.69h575.277c84.955 0 154.116-69.161 154.116-154.116v-379.561c0-84.955-69.161-154.116-154.116-154.116h-575.277zM294.813 647.019c-23.329 0-45.419-11.252-59.148-30.142l-137.497-189.832c-18.581-25.6-18.581-60.077 0-85.677l137.497-189.729c13.729-18.89 35.819-30.142 59.148-30.142h575.277c40.258 0 72.981 32.723 72.981 72.981v379.561c0 40.258-32.723 72.981-72.981 72.981h-575.277zM693.781 217.29c-10.839 0-20.955 4.232-28.697 11.871l-97.755 97.755-97.755-97.755c-7.639-7.639-17.858-11.871-28.697-11.871s-20.955 4.232-28.697 11.871c-15.794 15.794-15.794 41.497 0 57.29l97.755 97.755-97.755 97.858c-7.639 7.639-11.871 17.858-11.871 28.697s4.232 20.955 11.871 28.697c7.639 7.639 17.858 11.871 28.697 11.871 10.839 0 20.955-4.232 28.697-11.871l97.755-97.755 97.755 97.755c7.639 7.639 17.858 11.871 28.697 11.871s20.955-4.232 28.697-11.871c7.639-7.639 11.871-17.858 11.871-28.697 0-10.839-4.232-21.058-11.871-28.697l-97.755-97.755 97.755-97.755c7.639-7.639 11.871-17.858 11.871-28.697s-4.232-21.058-11.871-28.697c-7.639-7.639-17.858-11.871-28.697-11.871z"  horiz-adv-x="1039" />

    
    <glyph glyph-name="refresh-m" unicode="&#58992;" d="M512-67.31358308999995c-22.31266165 0-44.8117368 1.68678337-66.7502769 4.96843788-96.28128395 14.24898275-183.56293783 58.31247645-252.46862097 127.3139554-68.81247636 68.81118183-112.87467552 156.09283571-127.2194541 252.3754142-6.84422384 46.21889991-6.5620145 93.09413072 0.8453335 139.31303064 7.68826279 47.06293886 22.5003697 92.06367826 44.06349369 133.8759699 7.9691776 15.5629391 23.8130315 25.21890007 41.34496332 25.21890006 7.31155216 0 14.62569339-1.78128466 21.18770789-5.15614593 4.31210699-2.15670077 8.25009241-5.06293918 11.90586848-8.81321655 5.81377138-5.5302675 10.12587837-12.74990743 12.74990744-21.37541594 3.84477867-13.31303158 5.25064723-23.81432605 6.37560099-33.84440858l0.46862285-4.03119218c1.68678337-14.90531365 3.56256933-31.78091457 14.81210691-62.813586 8.5310072-23.71853022 23.81432605-48.18659808 34.96806779-66.09265146 14.62569339-23.34440865 20.62587828-33.09487091 18.37597076-46.68752277-3.46806803-21.18900243-18.93780037-34.96806779-39.37467607-34.9680678-17.06330896 0-31.21908496 9.75046226-35.15707037 12.65540615-18.37597076 13.68844768-32.81266157 25.59302163-44.71853006 36.84385376 0.46862285-94.49999929 37.59339141-183.2807285 105.3754153-250.87374982 67.96843742-67.96843742 157.87541491-105.37541531 253.21945317-105.3754153 56.71889983 0 113.43779966 13.78165443 164.06330785 39.84329892 6.5620145 3.37486128 13.97065703 5.15614594 21.18900243 5.15614593 17.43613598 0 33.28128443-9.6572555 41.34366877-25.21890007 5.71927008-10.96732823 6.74972255-23.52952763 2.90494389-35.43798518-3.84477867-11.90586848-12.00036978-21.563124-23.06349385-27.18918732-41.99999968-21.563124-87.00073908-36.37652543-133.6869673-43.97028693-24.18585853-3.75027737-48.56201419-5.71927008-72.74916726-5.71927009zM870.96899003 151.12551030999998c-19.87375155 0-36.65485117 12.84440873-42.74953735 32.71945483-0.56312415 1.59357662-1.12495376 3.46806803-1.50036985 5.25064722-3.46806803 13.03082224-4.59431632 23.62402892-5.5302675 33.00036962-1.68678337 15.00110949-3.56256933 32.06312391-14.8121069 63.09450083-8.5310072 23.71853022-23.81432605 48.18659808-34.9680678 66.09265145-14.62569339 23.34440865-20.62587828 33.00036962-18.37597076 46.68752277 3.46806803 21.18900243 18.93650583 34.96806779 39.37467607 34.96806779 17.06330896 0 31.21908496-9.75046226 35.15577584-12.65540615 13.40623835-10.03008253 28.68826263-21.84403879 43.21945473-35.52989739 0 95.06312343-37.21926985 184.50018355-105.3754153 252.656329-67.78072937 67.87652519-157.68770686 105.28091402-253.03174511 105.28091402-56.62439854 0-113.34459291-13.78165443-164.06330785-39.84329893-6.5620145-3.37486128-13.87486119-5.15614594-21.18900244-5.15614594-17.43613598 0-33.28128443 9.6572555-41.34366878 25.21890007-5.71927008 10.87541602-6.74972255 23.52952763-2.90494388 35.43798519 3.84477867 11.90586848 12.00036978 21.563124 23.06349386 27.18918731 41.99999968 21.563124 87.00073908 36.37652543 133.6869673 43.97028693 23.90623826 3.84477867 48.28109938 5.81377138 72.56275374 5.81377138 22.40586841 0 44.8117368-1.68678337 66.6557756-4.96843787 96.18678267-14.155776 183.46973108-58.21926969 252.46862097-127.21945411 69.00147895-69.00147895 112.96788227-156.28054377 127.2194541-252.46862096 6.84422384-46.31210667 6.5620145-93.09413072-0.84533349-139.31303063-7.68826279-47.06293886-22.5003697-92.06367826-44.06349369-133.87596991-2.53211685-4.87393659-5.71927008-9.18863265-9.75046226-12.74990742-8.0636789-8.34329917-20.53137698-13.59265185-32.90457379-13.59265186z"  horiz-adv-x="1024" />

    
    <glyph glyph-name="attachment-m" unicode="&#58935;" d="M300.5-32.7c-63 0-121.5 24.75-165.6 69.75l-3.15 3.6c-90 91.35-91.35 241.65-2.7 334.8l335.7 352.35c6.3 6.3 14.85 9.9 23.4 9.9s16.2-3.15 22.5-9c6.3-5.85 9.9-13.95 9.9-22.5 0-8.55-3.15-17.1-9-23.4l-335.7-352.35c-64.8-67.95-63.9-177.3 1.8-244.35l3.15-3.6c31.95-32.4 74.25-50.4 119.25-50.4 44.55 0 86.4 17.55 117.9 49.050l442.35 441c47.7 47.7 49.5 126.9 4.050 176.85-22.050 22.050-50.85 34.2-81 34.2-31.95 0-62.1-13.5-84.6-37.8l-419.4-449.55c-6.3-6.75-9.45-15.75-9.45-24.75 0.45-9.45 4.050-18 11.25-24.3l10.35-9.45c6.3-5.85 14.85-9.45 23.85-9.45 9.9 0 18.9 4.050 25.2 10.8l326.25 349.65c6.3 6.75 14.85 10.35 23.85 10.35 8.1 0 16.2-3.15 22.050-8.55 13.050-12.15 13.95-32.85 1.8-45.9l-326.25-349.65c-18.9-20.25-45.45-31.5-72.9-31.5-25.2 0-49.5 9.45-67.95 27l-10.35 9.45c-19.35 18-30.6 42.75-31.5 69.3s8.55 51.75 26.55 71.55l419.4 449.55c35.1 37.8 81.9 58.5 131.85 58.5 45.9 0 89.55-17.55 123.3-49.5 0.9-0.9 2.25-1.8 3.15-3.15l3.6-4.050c0.9-0.9 1.8-2.25 2.7-3.15 65.7-76.050 61.2-191.25-9.9-261.9l-442.35-441c-43.2-44.1-101.7-68.4-163.35-68.4z"  horiz-adv-x="1025" />

    
    <glyph glyph-name="password-m" unicode="&#58945;" d="M264.8-92.16c-106.080 0-192.48 86.4-192.48 192.48v307.2c0 18.72 15.36 34.56 34.56 34.56h81.6v169.92c0 134.88 109.92 244.8 244.8 244.8h157.92c134.88 0 244.8-109.92 244.8-244.8v-170.4h81.6c18.72 0 34.56-15.36 34.56-34.56v-307.2c0-106.080-86.4-192.48-192.48-192.48h-494.88zM140.96 99.84c0-68.16 55.68-123.84 123.84-123.84h495.36c68.16 0 123.84 55.68 123.84 123.84v273.12h-743.040v-273.12zM767.84 441.6v170.4c0 97.44-79.2 176.16-176.16 176.16h-158.4c-97.44 0-176.16-79.2-176.16-176.16v-170.4h510.72zM512.48 35.040c-76.8 0-139.68 62.4-139.68 139.68s62.4 139.68 139.68 139.68 139.68-62.4 139.68-139.68-62.88-139.68-139.68-139.68zM512.48 245.76c-39.36 0-71.040-31.68-71.040-71.040s31.68-71.040 71.040-71.040c39.36 0 71.040 31.68 71.040 71.040s-32.16 71.040-71.040 71.040z"  horiz-adv-x="1024" />

    
    <glyph glyph-name="user-m" unicode="&#58954;" d="M103.04-67.76888888999997c-38.4 0-69.6 31.68-69.6 70.08v89.28c0 38.88 58.56 66.24 64.8 69.12l242.4 116.16c-74.4 71.04-102.72 194.88-102.72 260.16v93.6c0 106.08 141.12 218.88 275.04 218.88 133.44 0 274.56-112.32 274.56-218.88v-94.08c0-59.52-21.12-187.2-100.32-260.64l240-115.2c7.68-3.36 64.8-28.8 65.28-69.12v-89.28c0-38.88-31.2-70.08-69.6-70.08h-819.84zM102.08 2.311111109999956c0-0.48 0.48-0.96 0.96-0.96h820.8c0.48 0 0.96 0.48 0.96 0.96v80.64c-5.28 4.32-14.88 10.56-23.04 13.92l-0.48 0.48c-0.48 0-0.96 0.48-1.44 0.48l-255.84 122.88c-18.24 8.64-30.24 25.92-32.64 46.08-2.4 20.64 5.76 39.84 21.6 52.32 63.36 50.88 86.88 157.92 86.88 217.44v94.56c0 61.92-106.56 149.28-205.92 149.28-56.16 0-120.96-28.8-165.12-72.96-25.92-25.92-40.8-53.76-40.8-76.32v-94.08c0-60 27.84-167.04 89.76-217.44 15.36-12.96 23.52-32.16 21.12-52.32-2.4-20.16-14.4-37.44-32.64-46.08l-258.24-122.88c-10.08-4.8-20.16-11.52-25.44-16.32v-79.68z"  horiz-adv-x="1025" />

    
    <glyph glyph-name="duib" unicode="&#58900;" d="M40.01109333 319.01354667c-6.60252445 7.12021333-6.47281778 18.25336889 0.25827556 25.24387555l44.01493333 45.568c3.49525333 3.62496 8.15559111 5.56714667 13.20391111 5.56714667 4.53063111 0 8.93269333-1.68277333 12.29824-4.79004444l266.41635556-244.66773334 16.69916444 27.83232c1.29479111 2.20046222 131.65454222 217.48280889 295.54346667 385.12526222 137.22168889 140.58723555 245.31512889 241.30218667 304.34531555 283.76291556 1.68277333 1.16508445 3.62496 1.81248 5.56714667 1.81248 3.23697778 0 7.50819555-1.68277333 9.32067556-6.47281778l11.52113777-31.19900444c1.29479111-3.62496 0.51768889-7.50819555-2.07189333-10.22748445-51.91111111-53.20590222-184.73073778-194.18112-297.09653333-352.63260444-143.17568-201.94759111-272.62976-431.33952-318.71544889-514.83761778l-361.30588445 389.91530667z"  horiz-adv-x="1024" />

    
    <glyph glyph-name="add" unicode="&#58882;" d="M538.42557155-82.68064236999999h-52.85235673c-11.62657185 0-21.14021452 9.51364267-21.14021452 21.14021452v891.60635733c0 11.62657185 9.51364267 21.14021452 21.14021452 21.14021452h52.85235673c11.62657185 0 21.14021452-9.51364267 21.14021453-21.14021452v-892.13549985c0-11.62657185-9.51364267-20.61228563-21.14021453-20.61228563zM978.68064237 410.42557155v-52.85235673c0-11.62657185-9.51364267-21.14021452-21.14021452-21.14021452h-891.60635733c-11.62657185 0-21.14021452 9.51364267-21.14021452 21.14021452v52.85235673c0 11.62657185 9.51364267 21.14021452 21.14021452 21.14021453h892.13549985c11.62657185 0 20.61228563-9.51364267 20.61228563-21.14021453z"  horiz-adv-x="1024" />

    
    <glyph glyph-name="minus" unicode="&#58883;" d="M979.16609422 410.45348503v-52.90697006c0-11.63992178-9.5233517-21.16327348-21.16327347-21.16327349h-892.53599764c-11.63992178 0-21.16327348 9.5233517-21.16327348 21.16327349v52.90697006c0 11.63992178 9.5233517 21.16327348 21.16327348 21.16327349h893.06514014c11.63992178 0 20.63413097-9.5233517 20.63413097-21.16327349z"  horiz-adv-x="1024" />

    
    <glyph glyph-name="loading1" unicode="&#58884;" d="M849.6 176.8c0-3.1 2.5-5.6 5.6-5.6s5.6 2.5 5.6 5.6v0c0 3.1-2.5 5.6-5.6 5.6s-5.6-2.5-5.6-5.6v0 0zM725.9 49.2v0c0-6.2 5-11.1 11.1-11.1 6.2 0 11.1 5 11.1 11.1v0 0c0 6.2-5 11.1-11.1 11.1-6.1-0-11.1-4.9-11.1-11.1 0-6.1 0 0 0 0v0zM559.2-16.5c0-9.2 7.5-16.7 16.7-16.7s16.7 7.5 16.7 16.7c0 9.2-7.5 16.7-16.7 16.7-9.2 0.1-16.7-7.4-16.7-16.7v0zM379.8-7.7v0c0-12.3 10-22.3 22.3-22.3s22.3 10 22.3 22.3v0 0c0 12.3-10 22.3-22.3 22.3s-22.3-10-22.3-22.3c0-12.3 0 0 0 0v0zM220.6 74c0-15.4 12.5-27.9 27.9-27.9s27.9 12.5 27.9 27.9v0c0 15.4-12.5 27.9-27.9 27.9-15.4 0-27.9-12.5-27.9-27.9v0 0zM110.4 212.9c0-18.5 15-33.5 33.5-33.5s33.5 15 33.5 33.5c0 18.5-15 33.5-33.5 33.5s-33.5-15-33.5-33.5v0zM69 383.4c0-21.6 17.5-39 39-39s39 17.5 39 39c0 21.6-17.5 39-39 39s-39-17.5-39-39v0zM103 552.8c0-24.7 20-44.6 44.6-44.6s44.6 20 44.6 44.6c0 24.6-20 44.6-44.6 44.6s-44.6-20-44.6-44.6v0zM205.2 689.4c0-27.7 22.5-50.2 50.2-50.2s50.2 22.5 50.2 50.2v0c0 27.7-22.5 50.2-50.2 50.2-27.8 0-50.2-22.5-50.2-50.2v0 0zM355.1 767.6c0-30.8 25-55.8 55.8-55.8s55.8 25 55.8 55.8c0 30.8-25 55.8-55.8 55.8-30.8 0-55.8-25-55.8-55.8v0zM523.5 772.5c0-33.9 27.5-61.4 61.4-61.4s61.4 27.5 61.4 61.4v0c0 33.9-27.5 61.4-61.4 61.4-33.9-0.1-61.4-27.5-61.4-61.4v0 0zM677.7 703.1c0-36.9 30-66.9 66.9-66.9s66.9 30 66.9 66.9c0 37-30 66.9-66.9 66.9-36.9 0-66.9-29.9-66.9-66.9v0zM787.3 572.8c0-40 32.5-72.5 72.5-72.5s72.5 32.5 72.5 72.5c0 40-32.5 72.5-72.5 72.5-40.1 0-72.5-32.5-72.5-72.5v0zM830.9 404c0-43.1 35-78.1 78.1-78.1s78.1 35 78.1 78.1c0 43.1-35 78.1-78.1 78.1-43.2 0-78.1-35-78.1-78.1v0z"  horiz-adv-x="1024" />

    
    <glyph glyph-name="cuo" unicode="&#58887;" d="M860.79715555-17.347697779999976c-23.17994667 6.79594667-87.50307555 71.11907555-134.71288888 118.32888889-51.09418667 51.09418667-239.08465778 228.16199111-240.90510222 229.98243556l-2.54862223 2.42688-2.06279111-2.79096889c-63.95790222-85.43914667-231.68227555-308.74737778-240.42040889-316.15089778-15.04938667-12.74311111-38.35107555-19.78254222-65.77834667-19.78254222-17.23392 0-35.68071111 2.91271111-53.39932444 8.37404444 8.73813333 32.03982222 72.69603555 117.9648 129.49390222 193.93763556 22.57351111 30.21937778 48.18147555 64.56547555 74.75996445 101.09496889 21.48124445 26.2144 43.20483555 52.06471111 64.32199111 76.70101333l22.08768 25.72856889-25.48622222 22.33116444c-34.58844445 30.34112-71.60376889 60.92458667-107.28448 90.41578667-60.92458667 50.36600889-144.05745778 119.17880889-152.79559112 140.41656889-16.99043555 41.38439111-7.88821333 107.64856889 1.94218667 132.89244444 77.67267555-11.52910222 236.05134222-167.84497778 341.27303111-271.61031111l24.51569778-24.15160889 24.02986667 24.63630222c250.25080889 257.77493333 337.63214222 263.11452445 341.27303111 263.23626667h0.97052444c4.97550222 0.24234667 9.70865778 0.36408889 14.19946667 0.36408889 27.54901333 0 40.17152-5.21898667 45.02528-8.25230222-24.27221333-29.97703111-118.57123555-115.90200889-194.66581333-185.32124444-49.152-44.78293333-160.19911111-160.92728889-161.29137778-162.01955556l-1.94218667-2.06279111 16.01991111-17.71861333c50.73009778-56.19143111 106.31395555-113.47399111 155.34421334-164.08234667 59.95292445-61.89511111 134.3488-138.71786667 141.99466666-157.04405333 13.71363555-33.49617778 12.25728-80.82773333-13.95712-99.88209778z"  horiz-adv-x="1024" />

    
    <glyph glyph-name="delete" unicode="&#58932;" d="M268.25142857-77.07259260000001c-90.69714286 0-164.38857143 73.69142857-164.38857143 164.38857143v406.72c0 19.84 16.06095238 35.42857143 35.42857143 35.42857143s35.42857143-16.06095238 35.42857143-35.42857143v-406.72c0-51.48952381 42.04292063-93.05803175 93.53142857-93.05803175h487.02476191c51.48952381 0 93.53142857 42.04292063 93.53142857 93.05803175v406.72c0 19.84 16.06095238 35.42857143 35.42857143 35.42857143s35.42857143-16.06095238 35.42857142-35.42857143v-406.72c0-43.93142857-17.00469841-85.02857143-48.18184127-116.20571429s-72.27530159-48.18184127-116.20571428-48.18184127h-487.02476191zM636.23619048 51.88740740000003c-19.84 0-35.42857143 16.06095238-35.42857143 35.42857143v406.72c0 19.84 16.06095238 35.42857143 35.42857143 35.42857143 19.84 0 35.42857143-16.06095238 35.42857142-35.42857143v-406.72c0-19.36761905-16.06095238-35.42857143-35.42857142-35.42857143zM387.76380952 51.88740740000003c-19.84 0-35.42857143 16.06095238-35.42857142 35.42857143v406.72c0 19.84 16.06095238 35.42857143 35.42857142 35.42857143s35.42857143-16.06095238 35.42857143-35.42857143v-406.72c0-9.44761905-3.78006349-18.42285714-10.39136508-25.0351746s-15.58857143-10.39136508-25.0351746-10.39136508zM75.04761905 628.19216931c-19.84 0-35.42857143 16.06095238-35.42857143 35.42857142s16.06095238 35.42857143 35.42857143 35.42857143h212.57142857v73.22006349c0 48.65422222 44.87619048 88.33625397 100.1447619 88.33625397h248c55.26857143 0 100.1447619-39.68101587 100.14476191-88.33625397v-72.74768254h212.57142857c19.84 0 35.42857143-16.06095238 35.42857143-35.42857142s-16.06095238-35.42857143-35.42857143-35.42857143h-873.43339683zM665.05142857 699.52169311v72.27530159c0 7.08571429-11.33815873 17.47707937-28.81523809 17.47707937h-248.47136508c-18.42285714 0-28.8152381-11.33815873-28.8152381-17.47707937v-72.74768254h306.10184127z"  horiz-adv-x="1024" />

    
    <glyph glyph-name="edit" unicode="&#58933;" d="M212.74965333-65.54965332999996c-81.45009778 0-148.04992 66.1504-148.04992 148.04992v599.85009778c0 81.00067555 66.1504 147.14993778 147.60049778 147.14993777h399.14951111c18.90076445 0 34.64988445-15.29969778 34.64988445-34.64988444s-15.30083555-34.64988445-34.64988445-34.64988445h-394.6496c-45.90023111 0.45056-82.79950222-36.90040889-82.79950222-82.35008v-590.85027555c0-45.90023111 37.35096889-83.25006222 83.25006222-83.25006223h590.85027556c45.44967111 0 82.35008 36.90040889 82.35008 82.35008v383.40039112c0 18.90076445 15.29969778 34.64988445 34.64988444 34.64988444s34.64988445-15.29969778 34.64988445-34.64988444v-387.90030222c0-81.00067555-66.1504-147.14993778-147.14993778-147.14993778h-599.85009778zM327.50023111 141.44967111000005c-8.5504 0-16.64910222 3.59992889-22.95011556 9.44924444-8.5504 9.00096-11.25034667 20.69959111-8.5504 31.94993778l43.20028445 158.40028445 12.59975111 19.35018667 428.85006222 428.39950222c13.95029333 13.95029333 32.40049778 21.59957333 53.10008889 21.59957333 22.95011555 0 45.90023111-9.89980445 63.00103111-27.00060445l41.40032-41.39918222c17.09966222-17.09966222 26.55004445-39.60035555 27.00060445-63.00103111 0-20.24903111-7.65041778-39.14979555-21.59957333-53.10008889l-428.85006223-428.85006222-19.80074667-12.15032889-158.84970666-43.20028444c-2.69994667 0-5.40103111-0.45056-8.5504-0.45056zM373.84988445 219.7504l68.39978666 18.45020445-49.50016 49.50016-18.90076444-67.95036445zM495.35089778 276.89984000000004l307.80074667 307.80074667c0 0-62.55047111 63.89987555-63.89987556 64.79985778l-308.25016889-308.24903112 64.35043555-64.35043555zM854.00007111 635.09959111l40.04977778 40.04977778c5.40103111 5.39989333 4.49991111 14.85027555-2.24938667 21.15015111l-41.39918222 41.40032c-3.59992889 3.59992889-8.09984 5.39989333-12.60088889 5.39989333-2.24938667 0-5.84931555-0.45056-8.5504-3.14936888l-39.60035556-39.60035556 64.34929778-65.25041778z"  horiz-adv-x="1028" />

    
    <glyph glyph-name="view" unicode="&#58977;" d="M511.92149333333333 736.6661688888889c-231.88138666666663-2.625991111111111-509.5799466666667-292.71267555555556-509.5799466666667-349.1555555555555 0-56.44174222222222 255.7940622222222-353.0934044444445 509.5799466666667-349.1544177777778s509.5799466666667 307.15107555555556 509.5799466666667 349.1544177777778c0 42.004479999999994-277.69969777777777 351.78040888888887-509.5799466666667 349.1555555555555zM511.92149333333333 154.49941333333334c-128.68266666666665 0-232.9998222222222 104.31829333333333-232.9998222222222 232.9998222222222 0 128.68266666666665 104.31715555555556 233.00096 232.9998222222222 233.00096s232.9998222222222-104.31829333333333 232.9998222222222-233.00096c0-128.68266666666665-104.31715555555556-232.9998222222222-232.9998222222222-232.9998222222222zM416.96256 386.85411555555567c0 0 0 0 0 0 0-52.19555555555555 42.31281777777778-94.50837333333332 94.50837333333332-94.50837333333332 52.19555555555555 0 94.50837333333332 42.31281777777778 94.50837333333332 94.50837333333332 0 0 0 0 0 0 0 0 0 0 0 0 0 52.19555555555555-42.31281777777778 94.50837333333332-94.50837333333332 94.50837333333332-52.19555555555555 0-94.50837333333332-42.31281777777778-94.50837333333332-94.50837333333332s0 0 0 0z"  horiz-adv-x="1024" />

    
    <glyph glyph-name="zan" unicode="&#58978;" d="M329.715056 723.5163625481482c-61.10584319999999 0-114.9737728-18.109517866666664-159.8213269333333-62.5095456-93.4794304-92.37262293333333-93.4794304-242.17482666666672 0-334.5998421333333 26.683459199999998-26.43240853333333 285.7201888-311.94302400000004 285.7201888-311.94302400000004 14.760714666666665-14.63518933333333 34.135312-21.9353184 53.45642453333333-21.9353184 19.327661866666663 0 38.661873066666665 7.300130133333332 53.40948906666666 21.9353184 0 0 283.3373866666667 302.99141439999994 286.3576405333333 306.0334986666667 93.46524053333333 92.43374826666667 93.46524053333333 242.23813439999998 0 334.6129408-46.38442346666667 45.8888704-98.23193706666666 68.65484053333333-161.43242026666667 68.65484053333333-60.381068799999994 0-127.74572586666665-47.71390293333333-178.04654613333332-98.34763946666666C457.4618730666666 676.0513278814814 392.19185600000003 723.5163625481482 329.715056 723.5163625481482L329.715056 723.5163625481482z"  horiz-adv-x="1024" />

    
    <glyph glyph-name="logo2" unicode="&#59536;" d="M624.594 714.297c-9.043 23.379-31.319 38.597-56.463 38.597h-131.231c-27.35 0-51.39-18.306-58.449-44.774l-156.816-585.361c-5.515-20.951 6.835-42.348 27.79-48.081 3.308-0.882 6.615-1.323 10.147-1.323h138.511c27.35 0 51.39 18.306 58.449 44.774l65.063 242.835 96.605-249.011c9.043-23.379 31.319-38.597 56.463-38.597h141.379c21.616 0 39.259 17.644 39.259 39.259 0 4.851-0.882 9.705-2.647 14.116l-228.059 587.567zM1192.752 723.338c-64.624-66.608-118.661-142.922-159.903-226.071-6.615-13.234-7.94-28.233-4.19-42.569l90.207-336.573c7.056-26.468 31.1-44.774 58.449-44.774h138.511c21.616 0 39.259 17.644 39.259 39.259 0 3.529-0.441 6.835-1.323 10.147l-161.006 600.58z"  horiz-adv-x="1448" />

    
    <glyph glyph-name="logo3" unicode="&#59535;" d="M1169.194 890.011c-199.974-9.022-383.413-114.702-491.669-283.103l126.3-325.632c34.582 243.794 166.467 463.532 365.37 608.735z"  horiz-adv-x="1448" />

    
    <glyph glyph-name="mcui" unicode="&#59532;" d="M807.083 596.735c-39.868-36.591-83.012-129.434-107.588-188.416-2.731-7.1-6.007-14.746-6.007-22.938 0 0 58.436-198.793 59.529-204.254 6.554-30.037 29.491-51.883 56.252-51.883h78.643c32.222 0 58.436 31.676 58.436 70.451l-87.927 367.548c0 31.676-30.583 48.606-51.337 29.491zM1004.784 770.406c-309.658 8.192-459.298-165.478-521.011-304.196-0.546-1.092-1.092-2.731-1.092-2.731l128.341-188.416c0.546-0.546 0.546-1.092 1.092-1.638 38.229 158.379 99.942 421.615 392.67 496.981zM557.5 129.245c36.591 0 55.706 52.429 31.13 85.197l-265.967 413.423v-0.546c-6.554 8.738-15.838 14.199-26.761 14.199h-120.149c-21.299 0-38.229-20.753-38.229-45.875l-108.681-420.523c0-25.668 16.93-45.875 38.229-45.875h119.057c17.476 0 32.222 14.199 37.137 33.86 1.092 3.823 42.052 154.010 42.052 154.010l115.78-159.471c13.107-18.022 32.222-28.399 51.883-28.399h124.518z"  horiz-adv-x="1024" />

    
    <glyph glyph-name="bottom-m" unicode="&#58968;" d="M515.4 105.9c-9.6 0-18.7 3.8-25.5 10.7l-15.9 16.2c-0.4 0.5-0.9 0.9-1.3 1.4l-432.4 439.2c-14.4 14.6-14.4 38.2 0 52.7l16.7 17c6.8 6.9 15.8 10.7 25.4 10.7s18.7-3.8 25.5-10.7l407.5-413.9 407.6 413.8c6.8 6.9 15.9 10.8 25.5 10.8s18.6-3.8 25.5-10.8l16.7-16.9c14.3-14.5 14.3-38.2 0-52.7l-449.8-456.7c-6.8-6.9-15.9-10.8-25.5-10.8z"  horiz-adv-x="1024" />

    
    <glyph glyph-name="left-m" unicode="&#58969;" d="M703.7-105c-11 0-21.5 4.8-29.6 13.6l-380.9 416.2c-8.5 9.3-13.2 21.8-13.2 35.3 0 12.3 4.1 24.1 11.4 33.2l377.1 464.3c8.2 10.1 19.4 15.7 31.4 15.7 10.1 0 19.9-4.1 27.6-11.6 9-8.7 14.3-20.9 15-34.2 0.7-13.4-3.3-26.3-11.3-36.2l-348.4-429.2 350.5-383c8.5-9.3 13.2-21.9 13.2-35.3s-4.7-26-13.2-35.3c-8.1-8.7-18.6-13.5-29.6-13.5z"  horiz-adv-x="1024" />

    
    <glyph glyph-name="right-m" unicode="&#58970;" d="M290.3-101c-11.4 0-22.1 4.4-30.2 12.4-8 8-12.4 18.5-12.4 29.8 0 11.2 4.4 21.8 12.4 29.8l415.6 412.9-415.6 412.8c-8 8-12.4 18.5-12.4 29.8 0 11.2 4.4 21.8 12.4 29.8 8 8 18.8 12.4 30.2 12.4s22.1-4.4 30.2-12.4l443.9-441c8.2-8.2 12.6-19.1 12.3-30.8v-1.2c0.3-11.7-4.1-22.7-12.3-30.8l-443.9-441c-8.1-8.1-18.8-12.5-30.2-12.5z"  horiz-adv-x="1024" />

    
    <glyph glyph-name="top-m" unicode="&#58971;" d="M948.5 105.9c-9.6 0-18.7 3.8-25.5 10.7l-407.6 414-407.5-413.9c-6.9-6.9-15.9-10.7-25.5-10.7s-18.6 3.8-25.5 10.8l-16.7 16.9c-14.3 14.5-14.3 38.2 0 52.7l449.7 456.7c6.8 6.9 15.9 10.8 25.5 10.8s18.7-3.8 25.5-10.7l16-16.2c0.4-0.5 0.8-0.9 1.3-1.3l432.4-439.2c14.4-14.6 14.4-38.2 0-52.7l-16.7-17c-6.8-7-15.8-10.9-25.4-10.9z"  horiz-adv-x="1025" />

    
    <glyph glyph-name="smlldown-m" unicode="&#58972;" d="M516.7 140.1c-11.5 0-22.1 4.5-30.1 12.6l-298.7 298.7c-8 8-12.5 18.7-12.5 30s4.4 22 12.5 30c8 8 18.7 12.4 30 12.4 11.4 0 22.1-4.4 30-12.4l268.8-268.4 268.7 268.7c8 8 18.7 12.4 30 12.4s22.1-4.4 30-12.4c8.1-8.1 12.5-18.8 12.5-30.3v-13.5l-2.7-1.3c-2.2-6-5.8-11.4-10.4-15.6l-298-298.2c-8-8.2-18.7-12.7-30.1-12.7z"  horiz-adv-x="1024" />

    
    <glyph glyph-name="purchasem" unicode="&#58946;" d="M195.285-80.078c-54.735 0-99.178 44.443-99.178 98.71v532.847c0 52.864 42.572 92.628 98.71 92.628h71.108c21.52 122.569 121.633 203.969 252.155 203.969 127.715 0 218.939-77.658 240.459-203.501h71.108c56.139 0 98.71-39.765 98.71-93.096v-532.847c0-54.268-44.443-98.71-99.178-98.71h-633.896zM161.603 18.633c0-14.97 17.777-32.748 32.748-32.748h634.832c13.567 0 32.748 6.55 32.748 21.052v368.174h-700.327v-356.479zM862.397 440.607v105.259c0 14.97-18.245 32.748-33.683 32.748h-69.705v-89.821c0-21.52-17.309-34.619-34.151-34.619-15.438 0-30.876 10.76-30.876 31.344v93.096h-364.432v-92.628c0-20.116-15.438-30.409-30.409-30.409-16.842 0-34.151 12.631-34.151 33.683v89.353h-69.705c-15.438 0-33.683-17.777-33.683-32.748v-104.791h700.795zM691.175 644.576c-20.584 81.868-90.289 137.539-173.094 137.539-86.079 0-163.737-58.478-185.257-137.539h358.35z"  horiz-adv-x="1024" />

    
    <glyph glyph-name="sreachm" unicode="&#58950;" d="M959.813-123.487c-7.196 0-13.913 2.878-19.191 7.676l-110.825 110.825c-5.277 5.277-8.156 11.994-8.156 19.671 0 5.757 1.919 11.514 5.757 16.791l-23.508 23.029c-81.079-70.524-184.228-109.386-291.215-109.386-118.501 0-230.285 46.057-313.763 130.015-83.958 83.478-130.015 195.263-130.015 313.763 0 118.501 46.057 230.285 130.015 313.763 83.958 83.958 195.263 130.015 313.763 130.015 244.678 0 443.778-199.101 443.778-443.778 0-109.386-40.3-213.973-113.703-296.012l23.029-23.029c4.797 3.358 10.554 5.277 16.793 5.277 7.196 0 13.913-2.878 19.191-7.676l110.825-110.825c5.277-5.277 8.156-11.994 8.156-19.671 0-7.196-2.878-13.913-7.676-19.191l-34.063-34.063c-5.277-4.318-11.994-7.196-19.191-7.196v0zM513.156 756.872c-98.351 0-190.944-38.381-260.51-107.946-69.565-69.565-107.467-161.679-107.467-260.030 0-98.351 38.381-190.944 107.946-260.51 69.085-69.565 161.679-107.467 260.030-107.467 98.351 0 190.944 38.381 260.51 107.946 69.565 69.565 107.946 161.679 107.946 260.51-0.48 202.459-165.517 367.497-368.455 367.497v0z"  horiz-adv-x="1024" />

    


  </font>
</defs>
</svg>
